<?xml version="1.0" standalone="no"?>
<!DOCTYPE svg PUBLIC "-//W3C//DTD SVG 20010904//EN"
 "http://www.w3.org/TR/2001/REC-SVG-20010904/DTD/svg10.dtd">
<svg version="1.0" xmlns="http://www.w3.org/2000/svg"
 width="1280.000000pt" height="1280.000000pt" viewBox="0 0 1280.000000 1280.000000"
 preserveAspectRatio="xMidYMid meet">
<metadata>
Created by potrace 1.15, written by Peter Selinger 2001-2017
</metadata>
<g transform="translate(0.000000,1280.000000) scale(0.100000,-0.100000)"
fill="#2fd4ae" stroke="none">
<path d="M5030 12651 c0 -55 -7 -135 -15 -178 -8 -43 -15 -112 -15 -153 0 -52
-3 -70 -10 -60 -7 11 -10 -1 -10 -40 0 -30 -7 -77 -15 -104 -8 -27 -15 -72
-16 -100 0 -38 -3 -46 -9 -31 -6 15 -9 8 -9 -28 -1 -26 -8 -64 -16 -84 -8 -19
-15 -51 -15 -70 0 -20 -4 -32 -10 -28 -6 4 -10 -6 -10 -22 -1 -15 -7 -39 -15
-53 -8 -14 -14 -37 -15 -52 0 -14 -4 -28 -9 -30 -5 -1 -11 -16 -13 -33 -1 -16
-9 -36 -15 -43 -7 -7 -13 -27 -13 -43 0 -18 -4 -28 -10 -24 -6 4 -10 -5 -10
-20 0 -14 -6 -28 -13 -31 -7 -2 -14 -14 -14 -27 -1 -12 -7 -23 -13 -25 -5 -2
-10 -14 -10 -27 0 -13 -7 -30 -15 -39 -8 -8 -15 -24 -15 -35 0 -12 -4 -21 -9
-21 -5 0 -12 -11 -15 -25 -4 -14 -11 -25 -16 -25 -6 0 -10 -7 -10 -15 0 -8 -4
-15 -10 -15 -5 0 -10 -11 -10 -25 0 -14 -4 -25 -9 -25 -5 0 -13 -10 -17 -22
-3 -12 -15 -31 -26 -42 -10 -11 -21 -31 -24 -43 -4 -13 -10 -20 -15 -17 -5 3
-9 -2 -9 -10 0 -9 -5 -16 -11 -16 -5 0 -7 -4 -4 -10 3 -5 1 -10 -4 -10 -6 0
-11 -5 -11 -10 0 -6 -11 -22 -25 -36 -14 -14 -25 -29 -25 -34 0 -41 -82 -66
-114 -35 -8 8 -24 15 -35 15 -12 0 -21 5 -21 10 0 6 -11 10 -24 10 -13 0 -26
7 -30 15 -3 8 -14 15 -25 15 -11 0 -21 5 -23 10 -2 6 -13 12 -26 13 -12 0 -22
7 -22 14 0 7 -11 13 -25 13 -14 0 -25 5 -25 10 0 6 -7 10 -15 10 -8 0 -15 6
-15 13 0 7 -10 13 -22 14 -11 1 -24 6 -27 11 -3 5 -21 17 -38 27 -18 11 -33
23 -33 27 0 4 -7 8 -15 8 -8 0 -15 5 -15 11 0 5 -4 7 -10 4 -5 -3 -10 -1 -10
4 0 6 -6 11 -13 11 -7 0 -21 11 -31 25 -10 14 -26 25 -34 25 -8 0 -29 16 -48
35 -18 19 -37 35 -43 35 -6 0 -11 4 -11 9 0 5 -9 13 -20 16 -11 4 -18 10 -15
15 8 12 -21 20 -33 8 -12 -12 -4 -41 8 -33 5 3 11 -4 15 -15 3 -11 11 -20 16
-20 5 0 9 -5 9 -11 0 -6 16 -25 35 -43 19 -19 35 -40 35 -48 0 -8 11 -24 25
-34 14 -10 25 -24 25 -31 0 -7 5 -13 11 -13 5 0 7 -4 4 -10 -3 -5 -1 -10 4
-10 6 0 11 -7 11 -15 0 -8 4 -15 9 -15 5 0 12 -8 15 -18 4 -10 15 -28 27 -41
11 -12 21 -30 22 -41 1 -11 7 -20 14 -20 7 0 13 -12 13 -27 0 -22 2 -25 10
-13 8 12 10 9 10 -12 0 -16 6 -28 13 -28 7 0 14 -10 14 -22 1 -13 7 -24 13
-26 5 -2 10 -12 10 -23 0 -11 6 -22 13 -25 7 -2 14 -14 14 -27 1 -12 7 -23 13
-25 5 -2 10 -15 10 -28 0 -13 5 -24 11 -24 5 0 7 -4 4 -10 -3 -5 -1 -10 4 -10
20 0 12 -65 -9 -83 -11 -9 -24 -17 -28 -17 -4 0 -19 -11 -34 -25 -15 -14 -32
-25 -38 -25 -5 0 -10 -5 -10 -11 0 -5 -4 -7 -10 -4 -5 3 -10 1 -10 -4 0 -6 -7
-11 -16 -11 -8 0 -13 -4 -10 -9 3 -5 -4 -11 -17 -15 -12 -3 -32 -14 -43 -24
-11 -11 -30 -23 -42 -26 -12 -4 -22 -12 -22 -17 0 -5 -11 -9 -25 -9 -14 0 -25
-4 -25 -10 0 -5 -7 -10 -15 -10 -8 0 -15 -4 -15 -10 0 -5 -11 -12 -25 -16 -14
-3 -25 -10 -25 -15 0 -5 -9 -9 -21 -9 -11 0 -27 -7 -35 -15 -9 -8 -26 -15 -39
-15 -13 0 -25 -5 -27 -10 -2 -6 -13 -12 -25 -13 -13 0 -25 -7 -27 -14 -3 -7
-17 -13 -31 -13 -15 0 -24 -4 -20 -10 4 -6 -6 -10 -24 -10 -16 0 -36 -6 -43
-12 -7 -7 -26 -15 -43 -16 -16 -2 -31 -8 -33 -13 -2 -5 -16 -9 -30 -9 -15 -1
-38 -7 -52 -15 -14 -8 -38 -14 -53 -15 -16 0 -26 -4 -22 -10 4 -6 -8 -10 -28
-10 -19 0 -51 -7 -70 -15 -20 -8 -58 -15 -84 -16 -35 0 -42 -3 -28 -8 14 -6 3
-10 -40 -13 -33 -3 -71 -8 -85 -13 -14 -4 -56 -10 -94 -12 -44 -4 -63 -8 -55
-14 9 -5 -16 -9 -63 -9 -43 0 -79 0 -80 -1 -59 -17 -157 -28 -240 -29 -65 0
-108 -4 -108 -10 0 -6 43 -10 108 -10 59 -1 136 -7 172 -15 36 -8 101 -15 145
-15 55 0 75 -3 65 -10 -11 -7 1 -10 40 -10 30 0 77 -7 104 -15 27 -8 72 -15
100 -16 38 0 46 -3 31 -9 -15 -6 -8 -9 28 -9 26 -1 64 -8 84 -16 19 -8 52 -15
72 -15 27 0 32 -3 21 -10 -11 -7 -6 -10 20 -10 19 0 46 -7 60 -15 14 -8 38
-14 53 -15 16 0 26 -4 22 -10 -5 -9 44 -15 61 -7 3 1 10 -6 15 -15 6 -11 22
-18 40 -18 18 0 28 -4 24 -10 -4 -6 7 -10 25 -10 17 0 33 -6 36 -13 2 -7 14
-14 27 -14 12 -1 23 -7 25 -13 2 -5 15 -10 28 -10 13 0 24 -5 24 -11 0 -5 5
-7 10 -4 6 3 10 1 10 -4 0 -6 7 -11 15 -11 8 0 15 -6 15 -12 0 -9 4 -8 10 2 6
10 10 11 10 3 0 -7 7 -13 15 -13 8 0 15 -5 15 -11 0 -5 5 -7 10 -4 6 3 10 1
10 -4 0 -6 7 -11 15 -11 8 0 15 -4 15 -10 0 -5 9 -10 20 -10 11 0 23 -6 26
-13 2 -7 13 -13 24 -14 11 -1 32 -13 47 -27 15 -14 33 -26 40 -26 7 0 13 -4
13 -10 0 -5 7 -10 15 -10 8 0 15 -5 15 -11 0 -5 5 -7 10 -4 6 3 10 1 10 -4 0
-6 7 -11 16 -11 8 0 12 -4 9 -10 -3 -5 0 -10 8 -10 8 0 17 -7 21 -15 3 -8 12
-15 21 -15 46 0 74 -79 40 -114 -8 -8 -15 -24 -15 -35 0 -12 -4 -21 -10 -21
-5 0 -10 -11 -10 -24 0 -13 -7 -26 -15 -30 -8 -3 -15 -15 -15 -26 0 -11 -4
-20 -9 -20 -5 0 -12 -11 -15 -25 -4 -14 -11 -25 -16 -25 -6 0 -10 -11 -10 -25
0 -14 -4 -25 -10 -25 -5 0 -10 -7 -10 -15 0 -8 -4 -15 -10 -15 -5 0 -12 -11
-16 -25 -3 -14 -9 -25 -13 -25 -3 0 -15 -16 -25 -35 -11 -19 -23 -35 -28 -35
-4 0 -8 -7 -8 -15 0 -8 -5 -15 -11 -15 -5 0 -7 -4 -4 -10 3 -5 1 -10 -4 -10
-6 0 -11 -5 -11 -10 0 -6 -11 -23 -25 -38 -14 -15 -25 -31 -25 -36 0 -5 -16
-23 -35 -42 -19 -18 -35 -35 -35 -39 0 -7 -19 -30 -42 -53 -12 -11 -14 -19 -7
-28 11 -14 42 -8 34 6 -3 5 4 11 15 15 11 3 20 11 20 16 0 5 6 9 13 9 7 0 21
11 31 25 10 14 28 25 40 25 17 0 18 2 6 10 -12 8 -11 10 6 10 12 0 29 11 40
24 10 14 28 27 41 31 13 3 23 10 23 15 0 6 7 10 15 10 8 0 15 5 15 10 0 6 6
10 13 10 7 0 25 12 40 26 15 14 36 26 47 27 11 1 20 7 20 14 0 7 12 13 28 13
21 0 24 2 12 10 -12 8 -9 10 13 10 15 0 27 6 27 13 0 7 10 14 22 14 13 1 24 7
26 13 2 5 12 10 23 10 11 0 22 6 25 13 2 7 14 14 27 14 12 1 23 7 25 13 2 5
15 10 28 10 13 0 24 5 24 11 0 5 5 7 10 4 6 -3 10 -1 10 4 0 6 15 11 33 11 33
0 67 -27 67 -54 0 -7 11 -22 25 -32 14 -10 25 -24 25 -31 0 -7 5 -13 11 -13 5
0 7 -4 4 -10 -3 -5 -1 -10 4 -10 6 0 11 -7 11 -15 0 -8 5 -15 10 -15 6 0 10
-6 10 -13 0 -7 12 -25 26 -40 14 -15 26 -36 27 -47 1 -11 7 -20 14 -20 7 0 13
-11 13 -25 0 -14 5 -25 10 -25 6 0 10 -7 10 -15 0 -8 5 -15 11 -15 5 0 7 -4 4
-10 -3 -5 -1 -10 4 -10 6 0 11 -7 11 -15 0 -8 6 -15 13 -15 8 0 7 -4 -3 -10
-10 -6 -11 -10 -2 -10 6 0 12 -7 12 -15 0 -8 5 -15 11 -15 5 0 7 -4 4 -10 -3
-5 -1 -10 4 -10 6 0 11 -11 11 -24 0 -13 5 -26 10 -28 6 -2 12 -13 13 -25 0
-13 7 -25 14 -27 7 -3 13 -17 13 -31 0 -14 5 -25 10 -25 6 0 10 -11 10 -24 0
-14 6 -31 13 -38 6 -7 14 -26 15 -43 2 -16 8 -31 13 -33 5 -2 9 -16 9 -30 1
-15 7 -38 15 -52 8 -14 15 -41 15 -60 0 -26 3 -31 10 -20 7 11 10 6 10 -21 0
-20 7 -53 15 -72 8 -20 15 -58 16 -84 0 -36 3 -43 9 -28 6 15 9 7 9 -31 1 -28
8 -73 16 -100 8 -27 15 -74 15 -104 0 -39 3 -51 10 -40 7 10 10 -8 10 -60 0
-41 7 -110 15 -153 8 -43 15 -123 15 -178 0 -59 4 -99 10 -99 6 0 10 43 10
108 1 59 7 136 15 172 8 36 15 101 15 145 0 49 4 75 9 66 6 -8 10 11 14 55 2
38 8 80 12 94 5 14 10 52 13 85 3 43 7 54 13 40 5 -14 8 -7 8 28 1 26 8 64 16
84 8 19 15 51 15 70 0 20 4 32 10 28 6 -4 10 6 10 22 1 15 7 39 15 53 8 14 14
37 15 52 0 14 4 28 9 30 5 2 11 17 13 33 1 17 9 36 16 43 6 7 12 27 12 43 0
18 4 28 10 24 6 -4 10 5 10 20 0 14 6 28 13 31 7 2 14 14 14 27 1 12 7 23 13
25 5 2 10 14 10 27 0 13 7 30 15 39 8 8 15 24 15 35 0 12 4 21 9 21 5 0 12 11
15 25 4 14 11 25 16 25 6 0 10 7 10 15 0 8 5 15 10 15 6 0 10 11 10 25 0 14 6
25 13 25 7 0 13 9 14 20 1 11 11 29 22 41 12 13 23 31 27 41 3 10 10 18 15 18
5 0 9 7 9 15 0 8 5 15 11 15 5 0 7 5 4 10 -3 6 -1 10 4 10 6 0 11 5 11 10 0 6
11 22 25 36 14 14 25 29 25 34 0 6 8 19 17 30 18 21 83 29 83 9 0 -5 5 -7 10
-4 6 3 10 1 10 -4 0 -6 11 -11 24 -11 13 0 26 -5 28 -10 2 -6 13 -12 25 -13
13 0 25 -7 27 -14 3 -7 14 -13 25 -13 11 0 21 -5 23 -10 2 -6 13 -12 26 -13
12 0 22 -7 22 -14 0 -7 12 -13 28 -13 21 0 24 -2 12 -10 -12 -8 -9 -10 13 -10
15 0 27 -6 27 -13 0 -7 9 -13 20 -14 11 -1 29 -11 41 -22 13 -12 31 -23 41
-27 10 -3 18 -10 18 -15 0 -5 7 -9 15 -9 8 0 15 -5 15 -11 0 -5 5 -7 10 -4 6
3 10 1 10 -4 0 -6 6 -11 13 -11 7 0 21 -11 31 -25 10 -14 28 -25 40 -25 17 0
18 -2 6 -10 -12 -8 -11 -10 6 -10 12 0 30 -11 40 -25 10 -14 24 -25 31 -25 7
0 13 -4 13 -9 0 -5 9 -13 20 -16 11 -4 18 -10 15 -15 -8 -12 21 -20 33 -8 12
12 4 41 -8 33 -5 -3 -11 4 -15 15 -3 11 -11 20 -16 20 -5 0 -9 5 -9 11 0 6
-16 25 -35 43 -19 19 -35 40 -35 48 0 8 -11 24 -25 34 -14 10 -25 24 -25 31 0
7 -5 13 -11 13 -5 0 -7 5 -4 10 3 6 1 10 -4 10 -6 0 -11 7 -11 15 0 8 -4 15
-9 15 -5 0 -12 8 -15 18 -4 10 -15 28 -27 41 -11 12 -21 30 -22 41 -1 11 -7
20 -14 20 -7 0 -13 12 -13 28 0 21 -2 24 -10 12 -8 -12 -10 -9 -10 13 0 15 -4
27 -10 27 -5 0 -12 11 -16 25 -3 14 -10 25 -15 25 -5 0 -9 9 -9 20 0 11 -6 23
-13 26 -7 2 -14 14 -14 27 -1 12 -7 23 -13 25 -5 2 -10 15 -10 28 0 13 -5 24
-11 24 -5 0 -7 5 -4 10 3 6 1 10 -4 10 -6 0 -11 15 -11 33 0 33 27 67 54 67 7
0 22 11 32 25 10 14 24 25 31 25 7 0 13 5 13 11 0 5 5 7 10 4 6 -3 10 -1 10 4
0 6 7 11 15 11 8 0 15 5 15 10 0 6 6 10 13 10 7 0 25 12 40 26 15 14 36 26 47
27 11 1 22 7 24 14 3 7 15 13 26 13 11 0 20 5 20 10 0 6 7 10 15 10 8 0 15 5
15 11 0 5 5 7 10 4 6 -3 10 -1 10 4 0 6 7 11 15 11 8 0 15 6 15 13 0 8 4 7 10
-3 6 -10 10 -11 10 -2 0 6 7 12 15 12 8 0 15 5 15 11 0 5 5 7 10 4 6 -3 10 -1
10 4 0 6 11 11 24 11 13 0 26 5 28 10 2 6 13 12 25 13 13 0 25 7 27 14 3 7 17
13 31 13 14 0 25 5 25 10 0 6 13 10 30 10 17 0 33 7 39 18 5 9 12 16 15 15 17
-8 66 -2 61 7 -4 6 7 10 24 10 40 0 43 1 59 17 7 7 32 13 55 13 31 0 38 3 27
10 -11 7 -5 10 23 10 20 0 38 -1 40 -2 1 -2 13 5 27 15 15 10 44 17 75 18 37
0 45 3 30 9 -14 6 -4 9 38 9 31 1 59 1 62 1 2 1 20 7 39 15 20 8 61 15 93 15
41 0 54 3 43 10 -10 7 10 10 65 10 44 0 109 7 145 15 36 8 113 14 173 15 64 0
107 4 107 10 0 6 -43 10 -107 10 -84 1 -182 12 -240 29 -2 1 -38 1 -80 1 -48
0 -73 4 -64 9 8 6 -11 10 -55 14 -38 2 -80 8 -94 12 -14 5 -52 10 -85 13 -43
3 -54 7 -40 13 14 5 7 8 -28 8 -26 1 -64 8 -84 16 -19 8 -51 15 -70 15 -20 0
-32 4 -28 10 4 6 -6 10 -22 10 -15 1 -39 7 -53 15 -14 8 -37 14 -52 15 -14 0
-28 4 -30 9 -1 5 -16 11 -33 13 -16 1 -36 9 -43 16 -7 6 -27 12 -43 12 -18 0
-28 4 -24 10 4 6 -5 10 -20 10 -14 0 -28 6 -31 13 -2 7 -14 14 -27 14 -12 1
-23 7 -25 13 -2 5 -14 10 -27 10 -13 0 -30 7 -39 15 -8 8 -24 15 -35 15 -12 0
-21 4 -21 9 0 5 -11 12 -25 15 -14 4 -25 11 -25 16 0 6 -7 10 -15 10 -8 0 -15
5 -15 10 0 6 -11 10 -25 10 -14 0 -25 4 -25 10 0 5 -11 12 -25 16 -14 3 -25 9
-25 13 0 4 -18 16 -39 27 -22 10 -37 22 -35 26 3 5 -2 8 -10 8 -9 0 -16 5 -16
11 0 5 -4 7 -10 4 -5 -3 -10 -1 -10 4 0 6 -5 11 -10 11 -6 0 -23 11 -38 25
-15 14 -30 25 -34 25 -4 0 -17 8 -28 17 -21 18 -29 83 -9 83 5 0 7 5 4 10 -3
6 -1 10 4 10 6 0 11 11 11 24 0 13 5 26 10 28 6 2 12 13 13 25 0 13 7 25 14
27 7 3 13 14 13 25 0 11 5 21 10 23 6 2 12 13 13 26 0 12 7 22 14 22 7 0 13
12 13 28 0 21 2 24 10 12 8 -12 10 -9 10 13 0 15 6 27 13 27 7 0 13 9 14 20 1
11 11 29 22 41 12 13 23 31 27 41 3 10 10 18 15 18 5 0 9 7 9 15 0 8 5 15 11
15 5 0 7 5 4 10 -3 6 -1 10 4 10 6 0 11 6 11 13 0 7 11 21 25 31 14 10 25 28
25 40 0 17 2 18 10 6 8 -12 10 -11 10 6 0 12 11 30 25 40 14 10 25 24 25 31 0
7 4 13 9 13 5 0 13 9 16 20 4 11 10 18 15 15 14 -8 20 23 6 34 -9 7 -17 5 -28
-7 -23 -23 -46 -42 -53 -42 -4 0 -21 -16 -39 -35 -19 -19 -40 -35 -48 -35 -8
0 -24 -11 -34 -25 -10 -14 -24 -25 -31 -25 -7 0 -13 -5 -13 -11 0 -5 -4 -7
-10 -4 -5 3 -10 1 -10 -4 0 -6 -7 -11 -15 -11 -8 0 -15 -4 -15 -8 0 -5 -16
-17 -35 -28 -19 -10 -35 -22 -35 -26 0 -5 -7 -8 -15 -8 -8 0 -15 -5 -15 -11 0
-5 -4 -7 -10 -4 -5 3 -10 1 -10 -4 0 -6 -7 -11 -15 -11 -8 0 -15 -4 -15 -10 0
-5 -9 -10 -20 -10 -11 0 -23 -6 -26 -13 -2 -7 -14 -14 -27 -14 -12 -1 -23 -7
-25 -13 -2 -5 -12 -10 -23 -10 -11 0 -22 -7 -25 -15 -4 -8 -17 -15 -30 -15
-13 0 -24 -4 -24 -10 0 -5 -9 -10 -21 -10 -11 0 -27 -7 -35 -15 -22 -22 -76
-19 -97 5 -9 11 -17 24 -17 28 0 4 -11 19 -25 34 -14 15 -25 32 -25 38 0 5 -5
10 -11 10 -5 0 -7 5 -4 10 3 6 1 10 -4 10 -6 0 -11 7 -11 16 0 8 -4 13 -9 10
-5 -3 -11 4 -15 17 -3 12 -14 32 -24 43 -11 11 -23 30 -26 42 -4 12 -12 22
-17 22 -5 0 -9 12 -9 28 0 21 -2 24 -10 12 -8 -12 -10 -9 -10 13 0 15 -4 27
-10 27 -5 0 -12 11 -16 25 -3 14 -10 25 -15 25 -5 0 -9 9 -9 21 0 11 -7 27
-15 35 -8 9 -15 27 -15 42 0 21 -2 24 -10 12 -8 -12 -10 -10 -10 11 0 14 -7
34 -15 45 -8 10 -15 29 -15 42 0 13 -4 20 -10 17 -6 -4 -10 6 -10 24 0 16 -6
36 -12 43 -7 7 -15 27 -16 43 -2 17 -8 32 -13 33 -5 2 -9 16 -9 30 -1 15 -7
38 -15 52 -8 14 -14 38 -15 53 0 16 -4 26 -10 22 -6 -4 -10 8 -10 28 0 19 -7
51 -15 70 -8 20 -15 58 -16 84 0 35 -3 42 -8 28 -6 -14 -10 -3 -13 40 -3 33
-8 71 -13 85 -4 14 -10 56 -12 94 -4 44 -8 63 -14 55 -5 -9 -9 17 -9 66 0 44
-7 109 -15 145 -8 36 -14 113 -15 173 0 64 -4 107 -10 107 -6 0 -10 -40 -10
-99z"/>
<path d="M11588 12736 c-9 -9 -19 -16 -23 -16 -6 0 -19 -10 -50 -37 -7 -7 -20
-13 -27 -13 -10 0 -10 -2 -1 -8 8 -5 1 -14 -23 -27 -22 -12 -30 -21 -23 -26 8
-4 4 -9 -10 -14 -11 -3 -21 -11 -21 -16 0 -5 -8 -9 -17 -9 -13 0 -14 -3 -6 -8
8 -5 1 -14 -23 -27 -22 -12 -30 -21 -23 -26 8 -4 4 -9 -10 -14 -11 -3 -21 -11
-21 -16 0 -5 -8 -9 -17 -9 -13 0 -14 -3 -6 -8 8 -5 1 -14 -23 -27 -22 -12 -30
-21 -23 -26 8 -4 4 -9 -10 -14 -11 -3 -21 -11 -21 -16 0 -5 -8 -9 -17 -9 -13
0 -14 -3 -6 -8 8 -5 1 -14 -23 -27 -22 -12 -30 -21 -23 -26 8 -4 4 -9 -10 -14
-11 -3 -21 -11 -21 -16 0 -5 -8 -9 -17 -9 -13 0 -14 -3 -6 -8 8 -5 1 -14 -23
-27 -22 -12 -30 -21 -23 -26 8 -4 4 -9 -10 -14 -11 -3 -21 -11 -21 -16 0 -5
-8 -9 -17 -9 -13 0 -14 -3 -6 -8 8 -5 1 -14 -23 -27 -22 -12 -30 -21 -23 -26
8 -4 4 -9 -10 -14 -11 -3 -21 -11 -21 -16 0 -5 -8 -9 -17 -9 -13 0 -14 -3 -6
-8 8 -5 1 -14 -23 -27 -22 -12 -30 -21 -23 -26 8 -4 4 -9 -10 -14 -11 -3 -21
-11 -21 -16 0 -5 -8 -9 -17 -9 -13 0 -14 -3 -6 -8 8 -5 1 -14 -23 -27 -22 -12
-30 -21 -23 -26 8 -4 4 -9 -10 -14 -11 -3 -21 -11 -21 -16 0 -5 -8 -9 -17 -9
-13 0 -14 -3 -6 -8 8 -5 1 -14 -23 -27 -22 -12 -30 -21 -23 -26 8 -4 4 -9 -10
-14 -11 -3 -21 -11 -21 -16 0 -5 -8 -9 -17 -9 -13 0 -14 -3 -6 -8 8 -5 1 -14
-23 -27 -22 -12 -30 -21 -23 -26 8 -4 4 -9 -10 -14 -11 -3 -21 -11 -21 -16 0
-5 -8 -9 -17 -9 -13 0 -14 -3 -6 -8 8 -5 1 -14 -23 -27 -22 -12 -30 -21 -23
-26 8 -4 4 -9 -10 -14 -11 -3 -21 -11 -21 -16 0 -5 -8 -9 -17 -9 -13 0 -14 -3
-6 -8 8 -5 1 -14 -23 -27 -22 -12 -30 -21 -23 -26 8 -4 4 -9 -10 -14 -11 -3
-21 -11 -21 -16 0 -5 -8 -9 -17 -9 -13 0 -14 -3 -6 -8 8 -5 1 -14 -23 -27 -22
-12 -30 -21 -23 -26 8 -4 4 -9 -10 -14 -11 -3 -21 -11 -21 -16 0 -5 -8 -9 -17
-9 -13 0 -14 -3 -6 -8 8 -5 1 -14 -23 -27 -22 -12 -30 -21 -23 -26 8 -4 4 -9
-10 -14 -11 -3 -21 -11 -21 -16 0 -5 -8 -9 -17 -9 -13 0 -14 -3 -6 -8 8 -5 1
-14 -23 -27 -22 -12 -30 -21 -23 -26 8 -4 4 -9 -10 -14 -11 -3 -21 -11 -21
-16 0 -5 -8 -9 -17 -9 -13 0 -14 -3 -6 -8 8 -5 1 -14 -23 -27 -22 -12 -30 -21
-23 -26 8 -4 4 -9 -10 -14 -11 -3 -21 -11 -21 -16 0 -5 -8 -9 -17 -9 -13 0
-14 -3 -6 -8 8 -5 1 -14 -23 -27 -22 -12 -30 -21 -23 -26 8 -4 4 -9 -10 -14
-11 -3 -21 -11 -21 -16 0 -5 -8 -9 -17 -9 -13 0 -14 -3 -6 -8 8 -5 1 -14 -23
-27 -22 -12 -30 -21 -23 -26 8 -4 4 -9 -10 -14 -11 -3 -21 -11 -21 -16 0 -5
-8 -9 -17 -9 -13 0 -14 -3 -6 -8 8 -5 1 -14 -23 -27 -22 -12 -30 -21 -23 -26
8 -4 4 -9 -10 -14 -11 -3 -21 -11 -21 -16 0 -5 -8 -9 -17 -9 -13 0 -14 -3 -6
-8 8 -5 1 -14 -23 -27 -22 -12 -30 -21 -23 -26 8 -4 4 -9 -10 -14 -11 -3 -21
-11 -21 -16 0 -5 -8 -9 -17 -9 -13 0 -14 -3 -6 -8 8 -5 1 -14 -23 -27 -22 -12
-30 -21 -23 -26 8 -4 4 -9 -10 -14 -11 -3 -21 -11 -21 -16 0 -5 -8 -9 -17 -9
-13 0 -14 -3 -6 -8 8 -5 1 -14 -23 -27 -22 -12 -30 -21 -23 -26 8 -4 4 -9 -10
-14 -11 -3 -21 -11 -21 -16 0 -5 -8 -9 -17 -9 -13 0 -14 -3 -6 -8 8 -5 1 -14
-23 -27 -22 -12 -30 -21 -23 -26 8 -4 4 -9 -10 -14 -11 -3 -21 -11 -21 -16 0
-5 -8 -9 -17 -9 -13 0 -14 -3 -6 -8 8 -5 1 -14 -23 -27 -22 -12 -30 -21 -23
-26 8 -4 4 -9 -10 -14 -11 -3 -21 -11 -21 -16 0 -5 -8 -9 -17 -9 -13 0 -14 -3
-6 -8 8 -5 1 -14 -23 -27 -22 -12 -30 -21 -23 -26 8 -4 4 -9 -10 -14 -11 -3
-21 -11 -21 -16 0 -5 -8 -9 -17 -9 -13 0 -14 -3 -6 -8 8 -5 1 -14 -23 -27 -22
-12 -30 -21 -23 -26 8 -4 4 -9 -10 -14 -11 -3 -21 -11 -21 -16 0 -5 -8 -9 -17
-9 -13 0 -14 -3 -6 -8 8 -5 1 -14 -23 -27 -22 -12 -30 -21 -23 -26 8 -4 4 -9
-10 -14 -11 -3 -21 -11 -21 -16 0 -5 -8 -9 -17 -9 -13 0 -14 -3 -6 -8 8 -5 1
-14 -23 -27 -22 -12 -30 -21 -23 -26 8 -4 4 -9 -10 -14 -11 -3 -21 -11 -21
-16 0 -5 -8 -9 -17 -9 -13 0 -14 -3 -6 -8 8 -5 1 -14 -23 -27 -22 -12 -30 -21
-23 -26 8 -4 4 -9 -10 -14 -11 -3 -21 -11 -21 -16 0 -5 -8 -9 -17 -9 -13 0
-14 -3 -6 -8 8 -5 1 -14 -23 -27 -22 -12 -30 -21 -23 -26 8 -4 4 -9 -10 -14
-11 -3 -21 -11 -21 -16 0 -5 -8 -9 -17 -9 -13 0 -14 -3 -6 -8 8 -5 1 -14 -23
-27 -22 -12 -30 -21 -23 -26 8 -4 4 -9 -10 -14 -11 -3 -21 -11 -21 -16 0 -5
-8 -9 -17 -9 -13 0 -14 -3 -6 -8 8 -5 1 -14 -23 -27 -22 -12 -30 -21 -23 -26
8 -4 4 -9 -10 -14 -11 -3 -21 -11 -21 -16 0 -5 -8 -9 -17 -9 -13 0 -14 -3 -6
-8 8 -5 1 -14 -23 -27 -22 -12 -30 -21 -23 -26 8 -4 4 -9 -10 -14 -11 -3 -21
-11 -21 -16 0 -5 -8 -9 -17 -9 -13 0 -14 -3 -6 -8 8 -5 1 -14 -23 -27 -22 -12
-30 -21 -23 -26 8 -4 4 -9 -10 -14 -11 -3 -21 -11 -21 -16 0 -5 -8 -9 -17 -9
-13 0 -14 -3 -6 -8 8 -5 1 -14 -23 -27 -24 -13 -31 -21 -22 -27 9 -5 7 -8 -7
-8 -11 0 -28 -9 -38 -20 -9 -11 -12 -20 -7 -20 6 0 5 -6 -2 -14 -7 -8 -17 -12
-21 -9 -5 3 -11 -4 -14 -16 -3 -11 -14 -23 -24 -26 -10 -4 -19 -11 -19 -16 0
-5 -8 -9 -17 -10 -10 0 -13 -3 -6 -6 10 -3 10 -7 0 -18 -7 -7 -16 -11 -20 -8
-5 3 -11 -4 -14 -16 -3 -11 -14 -23 -24 -26 -10 -4 -19 -11 -19 -16 0 -5 -7
-9 -15 -9 -9 0 -15 -9 -15 -22 0 -18 -2 -20 -9 -9 -8 12 -11 9 -16 -12 -4 -14
-16 -29 -26 -32 -10 -4 -19 -11 -19 -16 0 -5 -8 -9 -17 -10 -10 0 -13 -3 -6
-6 10 -3 10 -7 0 -18 -7 -7 -16 -11 -20 -8 -5 3 -11 -4 -14 -16 -3 -11 -14
-23 -24 -26 -10 -4 -19 -11 -19 -16 0 -5 -8 -9 -17 -10 -10 0 -13 -3 -6 -6 10
-3 10 -7 0 -18 -7 -7 -16 -11 -20 -8 -5 3 -11 -4 -14 -16 -3 -11 -14 -23 -24
-26 -10 -4 -19 -11 -19 -16 0 -5 -8 -9 -17 -10 -10 0 -13 -3 -6 -6 10 -3 10
-7 0 -18 -7 -7 -16 -11 -20 -8 -5 3 -11 -4 -14 -16 -3 -11 -14 -23 -24 -26
-10 -4 -19 -11 -19 -16 0 -5 -8 -9 -17 -10 -10 0 -13 -3 -6 -6 10 -3 10 -7 0
-18 -7 -7 -16 -11 -20 -8 -5 3 -11 -4 -14 -16 -3 -11 -14 -23 -24 -26 -10 -4
-19 -11 -19 -16 0 -5 -8 -9 -17 -10 -10 0 -13 -3 -6 -6 10 -3 10 -7 0 -18 -7
-7 -16 -11 -20 -8 -5 3 -11 -4 -14 -16 -3 -11 -14 -23 -24 -26 -10 -4 -19 -11
-19 -16 0 -5 -8 -9 -17 -10 -10 0 -13 -3 -6 -6 10 -3 10 -7 0 -18 -7 -7 -16
-11 -20 -8 -5 3 -11 -4 -14 -16 -3 -11 -14 -23 -24 -26 -10 -4 -19 -11 -19
-16 0 -5 -8 -9 -17 -10 -10 0 -13 -3 -6 -6 10 -3 10 -7 0 -18 -7 -7 -16 -11
-20 -8 -5 3 -11 -4 -14 -16 -3 -11 -14 -23 -24 -26 -10 -4 -19 -11 -19 -16 0
-5 -8 -9 -17 -10 -10 0 -13 -3 -6 -6 10 -3 10 -7 0 -18 -7 -7 -16 -11 -20 -8
-5 3 -11 -4 -14 -16 -3 -13 -13 -21 -27 -21 -16 0 -18 -3 -7 -9 10 -6 6 -11
-15 -19 -16 -6 -23 -11 -16 -11 10 -1 10 -4 0 -15 -7 -8 -16 -12 -21 -9 -4 2
-11 -6 -16 -19 -6 -14 -10 -17 -11 -8 -1 9 -5 6 -10 -8 -5 -12 -20 -27 -32
-32 -14 -5 -17 -9 -8 -10 9 -1 6 -5 -8 -10 -12 -5 -27 -20 -32 -32 -5 -14 -9
-17 -10 -8 -1 9 -5 6 -10 -8 -5 -12 -20 -27 -32 -32 -14 -5 -17 -9 -8 -10 9
-1 6 -5 -8 -10 -12 -5 -27 -20 -32 -32 -5 -14 -9 -17 -10 -8 -1 9 -5 6 -10 -8
-5 -12 -20 -27 -32 -32 -14 -5 -17 -9 -8 -10 9 -1 6 -5 -8 -10 -12 -5 -27 -20
-32 -32 -5 -14 -9 -17 -10 -8 -1 9 -5 6 -10 -8 -5 -12 -20 -27 -32 -32 -14 -5
-17 -9 -8 -10 9 -1 6 -5 -8 -10 -12 -5 -27 -20 -32 -32 -5 -14 -9 -17 -10 -8
-1 9 -5 6 -10 -8 -5 -12 -20 -27 -32 -32 -14 -5 -17 -9 -8 -10 9 -1 6 -5 -8
-10 -12 -5 -27 -20 -32 -32 -5 -14 -9 -17 -10 -8 -1 9 -5 6 -10 -8 -5 -12 -20
-27 -32 -32 -14 -5 -17 -9 -8 -10 9 -1 6 -5 -8 -10 -12 -5 -27 -20 -32 -32 -5
-14 -9 -17 -10 -8 -1 9 -5 6 -10 -8 -5 -12 -20 -27 -32 -32 -14 -5 -17 -9 -8
-10 9 -1 6 -5 -8 -10 -12 -5 -27 -20 -32 -32 -5 -14 -9 -17 -10 -8 -1 9 -5 5
-11 -8 -5 -13 -18 -26 -29 -29 -10 -3 -22 -14 -25 -24 -4 -10 -11 -19 -16 -19
-5 0 -9 -8 -9 -17 0 -14 -2 -15 -9 -5 -6 10 -10 9 -14 -7 -3 -12 -16 -25 -29
-30 -13 -6 -17 -10 -8 -11 9 -1 6 -5 -8 -10 -12 -5 -27 -20 -32 -32 -5 -14 -9
-17 -10 -8 -1 9 -5 6 -10 -8 -5 -12 -20 -27 -32 -32 -14 -5 -17 -9 -8 -10 9
-1 6 -5 -8 -10 -12 -5 -27 -20 -32 -32 -5 -14 -9 -17 -10 -8 -1 9 -5 6 -10 -8
-5 -12 -20 -27 -32 -32 -14 -5 -17 -9 -8 -10 9 -1 6 -5 -8 -10 -12 -5 -27 -20
-32 -32 -5 -14 -9 -17 -10 -8 -1 9 -5 6 -10 -8 -5 -12 -20 -27 -32 -32 -14 -5
-17 -9 -8 -10 9 -1 6 -5 -8 -10 -12 -5 -27 -20 -32 -32 -5 -14 -9 -17 -10 -8
-1 9 -5 6 -10 -8 -5 -12 -20 -27 -32 -32 -14 -5 -17 -9 -8 -10 9 -1 6 -5 -8
-10 -12 -5 -27 -20 -32 -32 -5 -14 -9 -17 -10 -8 -1 9 -5 6 -10 -8 -5 -12 -20
-27 -32 -32 -14 -5 -17 -9 -8 -10 9 -1 6 -5 -8 -10 -12 -5 -27 -20 -32 -32 -5
-14 -9 -17 -10 -8 -1 9 -5 6 -10 -8 -5 -12 -20 -27 -32 -32 -14 -5 -17 -9 -8
-10 9 -1 6 -5 -8 -10 -12 -5 -27 -20 -32 -32 -5 -14 -9 -17 -10 -8 -1 9 -5 6
-10 -8 -5 -12 -20 -27 -32 -32 -14 -5 -17 -9 -8 -10 9 -1 6 -5 -8 -10 -12 -5
-27 -20 -32 -32 -5 -13 -9 -17 -9 -10 -1 10 -4 10 -15 0 -8 -7 -12 -16 -9 -21
2 -4 -6 -11 -19 -16 -14 -6 -17 -10 -8 -11 9 -1 6 -5 -8 -10 -12 -5 -27 -20
-32 -32 -5 -14 -9 -17 -10 -8 -1 9 -5 6 -10 -8 -5 -12 -20 -27 -32 -32 -14 -5
-17 -9 -8 -10 9 -1 6 -5 -8 -10 -12 -5 -27 -20 -32 -32 -5 -14 -9 -17 -10 -8
-1 9 -5 6 -10 -8 -5 -12 -20 -27 -32 -32 -14 -5 -17 -9 -8 -10 9 -1 6 -5 -8
-10 -12 -5 -27 -20 -32 -32 -5 -14 -9 -17 -10 -8 -1 9 -5 6 -10 -8 -5 -12 -20
-27 -32 -32 -14 -5 -17 -9 -8 -10 9 -1 6 -5 -8 -10 -12 -5 -27 -20 -32 -32 -5
-14 -9 -17 -10 -8 -1 9 -5 6 -10 -8 -5 -12 -20 -27 -32 -32 -14 -5 -17 -9 -8
-10 9 -1 6 -5 -8 -10 -12 -5 -27 -20 -32 -32 -5 -14 -9 -17 -10 -8 -1 9 -5 6
-10 -8 -5 -12 -20 -27 -32 -32 -14 -5 -17 -9 -8 -10 9 -1 6 -5 -8 -10 -12 -5
-27 -20 -32 -32 -5 -14 -9 -17 -10 -8 -1 9 -5 6 -10 -8 -5 -12 -20 -27 -32
-32 -14 -5 -17 -9 -8 -10 9 -1 6 -5 -8 -10 -12 -5 -27 -20 -32 -32 -5 -14 -9
-17 -10 -8 -1 9 -5 6 -10 -8 -5 -12 -20 -27 -32 -32 -14 -5 -17 -9 -8 -10 9
-1 6 -5 -8 -10 -12 -5 -27 -20 -32 -32 -5 -14 -9 -17 -10 -8 -1 9 -5 6 -10 -8
-5 -12 -20 -27 -32 -32 -14 -5 -17 -9 -8 -10 9 -1 6 -5 -8 -10 -12 -5 -27 -20
-32 -32 -5 -14 -9 -17 -10 -8 -1 9 -5 6 -10 -8 -5 -12 -20 -27 -32 -32 -14 -5
-17 -9 -8 -10 9 -1 6 -5 -8 -10 -12 -5 -27 -20 -32 -32 -5 -14 -9 -17 -10 -8
-1 9 -5 6 -10 -8 -5 -12 -20 -27 -32 -32 -14 -5 -17 -9 -8 -10 9 -1 6 -5 -8
-10 -12 -5 -27 -20 -32 -32 -5 -14 -9 -17 -10 -8 -1 9 -5 6 -10 -8 -5 -12 -20
-27 -32 -32 -14 -5 -17 -9 -8 -10 9 -1 6 -5 -8 -10 -12 -5 -27 -20 -32 -32 -5
-14 -9 -17 -10 -8 -1 9 -5 6 -10 -8 -5 -12 -20 -27 -32 -32 -14 -5 -17 -9 -8
-10 9 -1 6 -5 -8 -10 -12 -5 -27 -20 -32 -32 -5 -14 -9 -17 -10 -8 -1 9 -5 6
-10 -8 -5 -12 -20 -27 -32 -32 -14 -5 -17 -9 -8 -10 9 -1 6 -5 -8 -10 -12 -5
-27 -20 -32 -32 -5 -14 -9 -17 -10 -8 -1 9 -5 6 -10 -8 -5 -12 -20 -27 -32
-32 -14 -5 -17 -9 -8 -10 9 -1 6 -5 -8 -10 -12 -5 -27 -20 -32 -32 -5 -14 -9
-17 -10 -8 -1 9 -5 6 -10 -8 -5 -12 -20 -27 -32 -32 -14 -5 -17 -9 -8 -10 9
-1 6 -5 -8 -10 -12 -5 -27 -20 -32 -32 -5 -14 -9 -17 -10 -8 -1 9 -5 6 -10 -8
-5 -12 -20 -27 -32 -32 -14 -5 -17 -9 -8 -10 9 -1 6 -5 -8 -10 -12 -5 -27 -20
-32 -32 -5 -14 -9 -17 -10 -8 -1 9 -5 6 -10 -8 -5 -12 -20 -27 -32 -32 -14 -5
-17 -9 -8 -10 9 -1 6 -5 -8 -10 -12 -5 -27 -20 -32 -32 -5 -14 -9 -17 -10 -8
-1 9 -5 6 -10 -8 -5 -12 -20 -27 -32 -32 -14 -5 -17 -9 -8 -10 9 -1 6 -5 -8
-10 -12 -5 -27 -20 -32 -32 -5 -14 -9 -17 -10 -8 -1 9 -5 6 -10 -8 -5 -12 -20
-27 -32 -32 -14 -5 -17 -9 -8 -10 9 -1 6 -5 -8 -10 -12 -5 -27 -20 -32 -32 -5
-14 -9 -17 -10 -8 -1 9 -5 6 -10 -8 -5 -12 -20 -27 -32 -32 -14 -5 -17 -9 -8
-10 9 -1 6 -5 -8 -10 -12 -5 -27 -20 -32 -32 -5 -14 -9 -17 -10 -8 -1 9 -5 6
-10 -8 -5 -12 -20 -27 -32 -32 -14 -5 -17 -9 -8 -10 9 -1 6 -5 -8 -10 -12 -5
-27 -20 -32 -32 -5 -14 -9 -17 -10 -8 -1 9 -5 6 -10 -8 -5 -12 -20 -27 -32
-32 -14 -5 -17 -9 -8 -10 9 -1 6 -5 -8 -10 -12 -5 -27 -20 -32 -32 -5 -14 -9
-17 -10 -8 -1 9 -5 6 -10 -8 -5 -12 -20 -27 -32 -32 -14 -5 -17 -9 -8 -10 9
-1 6 -5 -8 -10 -12 -5 -27 -20 -32 -32 -5 -14 -9 -17 -10 -8 -1 9 -5 6 -10 -8
-5 -12 -20 -27 -32 -32 -14 -5 -17 -9 -8 -10 9 -1 6 -5 -8 -10 -12 -5 -27 -20
-32 -32 -5 -14 -9 -17 -10 -8 -1 9 -5 6 -10 -8 -5 -12 -20 -27 -32 -32 -14 -5
-17 -9 -8 -10 9 -1 6 -5 -8 -10 -12 -5 -27 -20 -32 -32 -5 -14 -9 -17 -10 -8
-1 9 -5 6 -10 -8 -5 -12 -20 -27 -32 -32 -14 -5 -17 -9 -8 -10 9 -1 6 -5 -8
-10 -12 -5 -27 -20 -32 -32 -5 -14 -9 -17 -10 -8 -1 9 -5 6 -10 -8 -5 -12 -20
-27 -32 -32 -14 -5 -17 -9 -8 -10 9 -1 6 -5 -8 -10 -12 -5 -27 -20 -32 -32 -5
-14 -9 -17 -10 -8 -1 9 -5 6 -10 -8 -5 -12 -20 -27 -32 -32 -14 -5 -17 -9 -8
-10 9 -1 6 -5 -8 -10 -12 -5 -27 -20 -32 -32 -5 -14 -9 -17 -10 -8 -1 9 -5 6
-10 -8 -5 -12 -20 -27 -32 -32 -14 -5 -17 -9 -8 -10 9 -1 6 -5 -8 -10 -12 -5
-27 -20 -32 -32 -5 -14 -9 -17 -10 -8 -1 9 -5 6 -10 -8 -5 -12 -20 -27 -32
-32 -14 -5 -17 -9 -8 -10 9 -1 6 -5 -8 -10 -12 -5 -27 -20 -32 -32 -5 -14 -9
-17 -10 -8 -1 9 -5 6 -10 -8 -5 -12 -20 -27 -32 -32 -14 -5 -17 -9 -8 -10 9
-1 6 -5 -8 -10 -12 -5 -27 -20 -32 -32 -5 -14 -9 -17 -10 -8 -1 9 -5 6 -10 -8
-5 -12 -20 -27 -32 -32 -14 -5 -17 -9 -8 -10 9 -1 6 -5 -8 -10 -12 -5 -27 -20
-32 -32 -5 -14 -9 -17 -10 -8 -1 9 -5 6 -10 -8 -5 -12 -20 -27 -32 -32 -14 -5
-17 -9 -8 -10 9 -1 6 -5 -8 -10 -12 -5 -27 -20 -32 -32 -5 -14 -9 -17 -10 -8
-1 9 -5 6 -10 -8 -5 -12 -20 -27 -32 -32 -14 -5 -17 -9 -8 -10 9 -1 6 -5 -8
-10 -12 -5 -27 -20 -32 -32 -5 -14 -9 -17 -10 -8 -1 9 -5 6 -10 -8 -5 -12 -20
-27 -32 -32 -14 -5 -17 -9 -8 -10 9 -1 6 -5 -8 -10 -12 -5 -27 -20 -32 -32 -5
-14 -9 -17 -10 -8 -1 9 -5 6 -10 -8 -5 -12 -20 -27 -32 -32 -14 -5 -17 -9 -8
-10 9 -1 6 -5 -8 -10 -12 -5 -27 -20 -32 -32 -5 -14 -9 -17 -10 -8 -1 9 -5 6
-10 -8 -5 -12 -20 -27 -32 -32 -14 -5 -17 -9 -8 -10 9 -1 6 -5 -8 -10 -12 -5
-27 -20 -32 -32 -5 -14 -9 -17 -10 -8 -1 9 -5 5 -11 -8 -5 -13 -18 -26 -29
-29 -10 -3 -22 -14 -25 -24 -4 -10 -11 -19 -16 -19 -5 0 -9 -8 -9 -17 0 -14
-2 -15 -9 -5 -6 10 -10 9 -14 -7 -3 -12 -16 -25 -29 -30 -13 -6 -17 -10 -8
-11 9 -1 6 -5 -8 -10 -12 -5 -27 -20 -32 -32 -5 -14 -9 -17 -10 -8 -1 9 -5 6
-10 -8 -5 -12 -20 -27 -32 -32 -14 -5 -17 -9 -8 -10 9 -1 6 -5 -8 -10 -12 -5
-27 -20 -32 -32 -5 -14 -9 -17 -10 -8 -1 9 -5 6 -10 -8 -5 -12 -20 -27 -32
-32 -14 -5 -17 -9 -8 -10 9 -1 6 -5 -8 -10 -12 -5 -27 -20 -32 -32 -5 -14 -9
-17 -10 -8 -1 9 -5 6 -10 -8 -5 -12 -20 -27 -32 -32 -14 -5 -17 -9 -8 -10 9
-1 6 -5 -8 -10 -12 -5 -27 -20 -32 -32 -5 -14 -9 -17 -10 -8 -1 9 -5 6 -10 -8
-5 -12 -20 -27 -32 -32 -14 -5 -17 -9 -8 -10 9 -1 6 -5 -8 -10 -12 -5 -27 -20
-32 -32 -5 -14 -9 -17 -10 -8 -1 9 -5 6 -10 -8 -5 -12 -20 -27 -32 -32 -14 -5
-17 -9 -8 -10 9 -1 6 -5 -8 -10 -12 -5 -27 -20 -32 -32 -5 -14 -9 -17 -10 -8
-1 9 -5 6 -10 -8 -5 -12 -20 -27 -32 -32 -14 -5 -17 -9 -8 -10 9 -1 6 -5 -8
-10 -12 -5 -27 -20 -32 -32 -5 -14 -9 -17 -10 -8 -1 9 -5 6 -10 -8 -5 -12 -20
-27 -32 -32 -14 -5 -17 -9 -8 -10 9 -1 6 -5 -8 -10 -12 -5 -27 -20 -32 -32 -5
-13 -9 -17 -9 -10 -1 10 -4 10 -15 0 -8 -7 -12 -16 -9 -21 2 -4 -6 -11 -19
-16 -14 -6 -17 -10 -8 -11 9 -1 6 -5 -8 -10 -12 -5 -27 -20 -32 -32 -5 -14 -9
-17 -10 -8 -1 9 -5 6 -10 -8 -5 -12 -20 -27 -32 -32 -14 -5 -17 -9 -8 -10 9
-1 6 -5 -8 -10 -12 -5 -27 -20 -32 -32 -5 -14 -9 -17 -10 -8 -1 9 -5 6 -10 -8
-5 -12 -20 -27 -32 -32 -14 -5 -17 -9 -8 -10 9 -1 6 -5 -8 -10 -12 -5 -27 -20
-32 -32 -5 -14 -9 -17 -10 -8 -1 9 -5 6 -10 -8 -5 -12 -20 -27 -32 -32 -14 -5
-17 -9 -8 -10 9 -1 6 -5 -8 -10 -12 -5 -27 -20 -32 -32 -5 -14 -9 -17 -10 -8
-1 9 -5 6 -10 -8 -5 -12 -20 -27 -32 -32 -13 -5 -17 -9 -9 -9 8 -1 3 -9 -13
-22 -14 -11 -26 -30 -26 -42 0 -18 -2 -19 -10 -7 -7 10 -10 -10 -10 -65 0 -55
3 -75 10 -65 8 12 10 10 10 -9 0 -14 14 -37 34 -56 19 -18 33 -34 31 -36 -1
-2 3 -10 11 -17 8 -7 14 -10 14 -7 0 3 20 -15 45 -41 25 -25 45 -51 45 -57 0
-7 5 -5 10 3 8 12 10 12 10 1 0 -7 16 -29 36 -47 19 -19 33 -34 29 -34 -3 0 0
-6 7 -14 7 -8 15 -13 18 -12 3 2 22 -14 43 -36 20 -21 35 -38 32 -38 -3 0 0
-6 7 -14 7 -8 15 -13 18 -12 3 2 22 -14 43 -36 20 -21 35 -38 32 -38 -3 0 0
-6 7 -14 7 -8 15 -13 18 -12 3 2 22 -14 43 -36 20 -21 35 -38 32 -38 -3 0 0
-6 7 -14 7 -8 15 -13 18 -12 3 2 22 -14 43 -36 20 -21 35 -38 32 -38 -3 0 0
-6 7 -14 7 -8 15 -13 18 -12 3 2 22 -14 43 -36 20 -21 35 -38 32 -38 -3 0 0
-6 7 -14 7 -8 15 -13 18 -12 6 3 80 -71 75 -76 -2 -1 3 -9 11 -16 8 -7 14 -10
14 -7 0 4 15 -10 34 -29 18 -20 39 -36 46 -36 7 0 10 -3 7 -6 -4 -4 9 -15 28
-25 38 -20 110 -25 120 -9 4 6 11 8 16 5 5 -4 9 -1 9 4 0 6 5 11 11 11 7 0
379 367 827 815 448 448 819 815 824 815 5 0 8 3 6 8 -2 4 193 203 434 443
241 239 440 431 442 425 2 -6 5 -4 5 5 1 20 3110 3131 3122 3123 5 -3 9 3 9
13 0 11 15 28 38 41 20 12 31 22 23 22 -11 0 -9 4 4 14 11 8 23 12 27 10 5 -3
8 3 8 13 0 11 15 28 38 41 20 12 31 22 23 22 -11 0 -9 4 4 14 11 8 23 12 27
10 5 -3 8 3 8 13 0 11 15 28 38 41 20 12 31 22 23 22 -11 0 -9 4 4 14 11 8 23
12 27 10 5 -3 8 3 8 13 0 11 15 28 38 41 20 12 31 22 23 22 -11 0 -9 4 4 14
11 8 23 12 27 10 5 -3 8 3 8 13 0 11 15 28 38 41 20 12 31 22 23 22 -11 0 -9
4 4 14 11 8 23 12 27 10 5 -3 8 3 8 13 0 11 15 28 38 41 20 12 31 22 23 22
-11 0 -9 4 4 14 11 8 23 12 27 10 5 -3 8 3 8 13 0 11 15 28 38 41 20 12 32 22
25 22 -16 0 37 54 79 80 18 11 27 20 19 20 -11 0 -9 4 4 14 11 8 23 12 27 10
5 -3 8 3 8 13 0 11 15 28 38 41 20 12 31 22 23 22 -11 0 -9 4 4 14 11 8 23 12
27 10 5 -3 8 3 8 13 0 11 15 28 38 41 20 12 31 22 23 22 -11 0 -9 4 4 14 11 8
23 12 27 10 5 -3 8 3 8 13 0 11 15 28 38 41 20 12 31 22 23 22 -11 0 -9 4 4
14 11 8 23 12 27 10 5 -3 8 3 8 13 0 11 15 28 38 41 20 12 31 22 23 22 -11 0
-9 4 4 14 11 8 23 12 27 10 5 -3 8 3 8 13 0 11 15 28 38 41 20 12 31 22 23 22
-11 0 -9 4 4 14 11 8 23 12 27 10 5 -3 8 3 8 13 0 11 15 28 38 41 20 12 31 22
23 22 -11 0 -9 4 4 14 11 8 23 12 27 10 5 -3 8 3 8 13 0 11 15 28 38 41 20 12
31 22 23 22 -11 0 -9 4 4 14 11 8 23 12 27 10 5 -3 8 2 8 11 0 19 79 97 91 89
5 -3 9 3 9 13 0 11 15 28 38 41 20 12 31 22 23 22 -11 0 -9 4 4 14 11 8 23 12
27 10 5 -3 8 3 8 13 0 11 15 28 38 41 20 12 31 22 23 22 -11 0 -9 4 4 14 11 8
23 12 27 10 5 -3 8 3 8 13 0 11 15 28 38 41 20 12 31 22 23 22 -11 0 -9 4 4
14 11 8 23 12 27 10 5 -3 8 3 8 13 0 11 15 28 38 41 20 12 31 22 23 22 -11 0
-9 4 4 14 11 8 23 12 27 10 5 -3 8 3 8 13 0 11 15 28 38 41 20 12 31 22 23 22
-11 0 -9 4 4 14 11 8 23 12 27 10 5 -3 8 3 8 13 0 11 15 28 38 41 20 12 31 22
23 22 -11 0 -9 4 4 14 11 8 23 12 27 10 5 -3 8 3 8 14 0 11 14 26 35 38 23 12
30 21 22 26 -8 5 -7 8 6 8 9 0 17 5 17 12 0 6 3 8 6 5 7 -7 44 30 44 44 0 4
10 11 21 14 17 6 19 9 8 16 -11 7 -11 9 3 9 18 0 68 44 68 60 0 5 10 12 21 15
17 6 19 9 8 16 -11 7 -10 9 4 9 9 0 17 5 17 11 0 5 3 8 8 6 4 -3 12 1 19 8 10
11 10 15 0 18 -7 3 -4 6 6 6 9 1 17 5 17 10 0 5 10 13 21 16 17 6 19 9 8 16
-11 7 -10 9 4 9 9 0 17 5 17 11 0 5 3 8 8 6 4 -3 12 1 19 8 10 11 10 15 0 18
-7 3 -4 6 6 6 9 1 17 5 17 10 0 5 10 13 21 16 17 6 19 9 8 16 -11 7 -10 9 4 9
9 0 17 5 17 11 0 5 3 8 8 6 4 -3 12 1 19 8 10 11 10 15 0 18 -7 3 -4 6 6 6 9
1 17 5 17 10 0 5 10 13 21 16 17 6 19 9 8 16 -11 7 -10 9 4 9 9 0 17 5 17 11
0 5 3 8 8 6 4 -3 12 1 19 8 10 11 10 15 0 18 -7 3 -4 6 6 6 9 1 17 5 17 10 0
5 10 13 21 16 17 6 19 9 8 16 -11 7 -10 9 4 9 9 0 17 5 17 11 0 5 3 8 8 6 4
-3 12 1 19 8 10 11 10 15 0 18 -7 3 -4 6 6 6 9 1 17 5 17 10 0 5 10 13 21 16
17 6 19 9 8 16 -11 7 -10 9 4 9 9 0 17 5 17 11 0 5 3 8 8 6 4 -3 12 1 19 8 10
11 10 15 0 18 -7 3 -4 6 6 6 9 1 17 5 17 10 0 5 10 13 21 16 17 6 19 9 8 16
-11 7 -10 9 4 9 9 0 17 5 17 11 0 5 3 8 8 6 4 -3 12 1 19 8 10 11 10 15 0 18
-7 3 -4 6 6 6 9 1 17 5 17 10 0 5 10 13 21 16 17 6 19 9 8 16 -11 7 -10 9 4 9
9 0 17 5 17 11 0 5 3 8 8 6 4 -3 12 1 19 8 10 11 10 15 0 18 -7 3 -5 6 5 6 19
1 68 46 68 62 0 6 3 8 8 6 4 -3 12 1 19 8 10 11 10 15 0 18 -7 3 -4 6 6 6 9 1
17 5 17 10 0 5 10 13 21 16 17 6 19 9 8 16 -11 7 -10 9 4 9 9 0 17 5 17 11 0
5 3 8 8 6 4 -3 12 1 19 8 10 11 10 15 0 18 -7 3 -4 6 6 6 9 1 17 5 17 10 0 5
10 13 21 16 17 6 19 9 8 16 -11 7 -10 9 4 9 9 0 17 5 17 11 0 5 3 8 8 6 4 -3
12 1 19 8 10 11 10 15 0 18 -7 3 -4 6 6 6 9 1 17 5 17 10 0 5 10 13 21 16 17
6 19 9 8 16 -11 7 -10 9 4 9 9 0 17 5 17 11 0 5 3 8 8 6 4 -3 12 1 19 8 10 11
10 15 0 18 -7 3 -4 6 6 6 9 1 17 5 17 10 0 5 10 13 21 16 17 6 19 9 8 16 -11
7 -10 9 4 9 9 0 17 5 17 11 0 5 3 8 8 6 4 -3 12 1 19 8 10 11 10 15 0 18 -7 3
-4 6 6 6 9 1 17 5 17 10 0 5 10 13 21 16 17 6 19 9 8 16 -11 7 -10 9 4 9 9 0
17 5 17 11 0 5 3 8 8 6 4 -3 12 1 19 8 10 11 10 15 0 18 -7 3 -4 6 6 6 9 1 17
5 17 10 0 5 10 13 21 16 17 6 19 9 8 16 -11 7 -10 9 4 9 9 0 17 5 17 11 0 5 3
8 8 6 4 -3 12 1 19 8 10 11 10 15 0 18 -7 3 -4 6 6 6 9 1 17 5 17 10 0 5 10
13 21 16 17 6 19 9 8 16 -11 7 -10 9 4 9 9 0 17 5 17 11 0 5 3 8 8 6 4 -3 12
1 19 8 10 11 10 15 0 18 -7 3 -4 6 6 6 9 1 17 5 17 10 0 5 10 13 21 16 17 6
19 9 8 16 -11 7 -10 9 4 9 9 0 17 5 17 11 0 5 3 8 8 6 4 -3 12 1 19 8 10 11
10 15 0 18 -7 3 -4 6 6 6 9 1 17 5 17 10 0 5 10 13 21 16 17 6 19 9 8 16 -11
7 -10 9 4 9 9 0 17 5 17 11 0 5 3 8 8 6 4 -3 12 1 19 8 10 11 10 15 0 18 -7 3
-4 6 6 6 9 1 17 5 17 10 0 5 10 13 21 16 17 6 19 9 8 16 -11 7 -10 9 4 9 9 0
17 5 17 11 0 5 3 8 8 6 4 -3 12 1 19 8 10 11 10 15 0 18 -7 3 -4 6 6 6 9 1 17
5 17 10 0 5 10 13 21 16 17 6 19 9 8 16 -11 7 -10 9 4 9 9 0 17 5 17 11 0 5 3
8 8 6 4 -3 12 1 19 8 10 11 10 15 0 18 -7 3 -4 6 6 6 9 1 17 5 17 10 0 5 10
13 21 16 17 6 19 9 8 16 -11 7 -10 9 4 9 9 0 17 5 17 11 0 5 3 8 8 6 4 -3 12
1 19 8 10 11 10 15 0 18 -7 3 -4 6 6 6 9 1 17 5 17 10 0 5 10 13 21 16 17 6
19 9 8 16 -11 7 -10 9 4 9 9 0 17 5 17 11 0 5 3 8 8 6 4 -3 12 1 19 8 10 11
10 15 0 18 -7 3 -4 6 6 6 9 1 17 5 17 10 0 5 10 13 21 16 17 6 19 9 8 16 -11
7 -10 9 4 9 9 0 17 5 17 11 0 5 3 8 8 6 4 -3 12 1 19 8 10 11 10 15 0 18 -7 3
-4 6 6 6 9 1 17 5 17 10 0 5 10 13 21 16 17 6 19 9 8 16 -11 7 -10 9 4 9 9 0
17 5 17 11 0 5 3 8 8 6 4 -3 12 1 19 8 10 11 10 15 0 18 -7 3 -4 6 6 6 9 1 17
5 17 10 0 5 10 13 21 16 17 6 19 9 8 16 -11 7 -10 9 4 9 9 0 17 5 17 11 0 5 3
8 8 6 4 -3 12 1 19 8 10 11 10 15 0 18 -7 3 -4 6 6 6 9 1 17 5 17 10 0 5 10
13 21 16 17 6 19 9 8 16 -11 7 -10 9 4 9 9 0 17 5 17 11 0 5 3 8 8 6 4 -3 12
1 19 8 10 11 10 15 0 18 -7 3 -4 6 6 6 9 1 17 5 17 10 0 5 10 13 21 16 17 6
19 9 8 16 -11 7 -10 9 4 9 9 0 17 5 17 11 0 5 3 8 8 6 4 -3 12 1 19 8 10 11
10 15 0 18 -7 3 -4 6 6 6 9 1 17 5 17 10 0 5 10 13 21 16 17 6 19 9 8 16 -11
7 -10 9 4 9 9 0 17 5 17 11 0 5 3 8 8 6 4 -3 12 1 19 8 10 11 10 15 0 18 -7 3
-4 6 6 6 9 1 17 5 17 10 0 5 10 13 21 16 17 6 19 9 8 16 -11 7 -10 9 4 9 9 0
17 5 17 11 0 5 3 8 8 6 4 -3 12 1 19 8 10 11 10 15 0 18 -7 3 -4 6 6 6 9 1 17
5 17 10 0 5 10 13 21 16 17 6 19 9 8 16 -11 7 -10 9 4 9 9 0 17 5 17 11 0 5 3
8 8 6 4 -3 12 1 19 8 10 11 10 15 0 18 -7 3 -4 6 6 6 9 1 17 5 17 10 0 5 10
13 21 16 17 6 19 9 8 16 -11 7 -10 9 4 9 9 0 17 5 17 11 0 5 3 8 8 6 4 -3 12
1 19 8 10 11 10 15 0 18 -7 3 -4 6 6 6 9 1 17 5 17 10 0 5 10 13 21 16 17 6
19 9 8 16 -11 7 -10 9 4 9 9 0 17 5 17 11 0 5 3 8 8 6 4 -3 12 1 19 8 10 11
10 15 0 18 -7 3 -4 6 6 6 9 1 17 5 17 10 0 5 10 13 21 16 17 6 19 9 8 16 -11
7 -10 9 4 9 9 0 17 5 17 11 0 5 3 8 8 6 4 -3 12 1 19 8 10 11 10 15 0 18 -7 3
-4 6 6 6 9 1 17 5 17 10 0 5 10 13 21 16 17 6 19 9 8 16 -11 7 -10 9 4 9 9 0
17 5 17 11 0 5 3 8 8 6 4 -3 13 1 20 9 10 11 10 14 0 14 -7 0 -1 8 15 18 15 9
27 25 27 34 0 10 5 18 10 18 6 0 10 30 10 70 0 40 -4 70 -10 70 -5 0 -10 7
-10 15 0 8 -7 15 -15 15 -8 0 -14 4 -12 8 1 4 -10 20 -25 35 -16 16 -28 32
-28 38 0 6 -3 8 -7 6 -5 -3 -13 1 -20 8 -10 11 -10 15 0 18 7 3 5 6 -5 6 -19
1 -68 46 -68 62 0 6 -3 8 -7 6 -5 -3 -13 1 -20 8 -10 11 -10 15 0 18 7 3 5 6
-5 6 -19 1 -68 46 -68 62 0 6 -3 8 -7 6 -5 -3 -13 1 -20 8 -10 11 -10 15 0 18
7 3 5 6 -5 6 -19 1 -68 46 -68 62 0 6 -3 8 -7 6 -5 -3 -13 1 -20 8 -10 11 -10
15 0 18 7 3 5 6 -5 6 -19 1 -68 46 -68 62 0 6 -3 8 -7 6 -5 -3 -13 1 -20 8
-10 11 -10 15 0 18 7 3 5 6 -5 6 -19 1 -68 46 -68 62 0 6 -3 8 -7 6 -5 -3 -13
1 -20 8 -10 11 -10 15 0 18 7 3 5 6 -5 6 -19 1 -68 46 -68 62 0 6 -3 8 -7 6
-5 -3 -13 1 -20 8 -10 11 -10 15 0 18 7 3 5 6 -5 6 -19 1 -68 46 -68 62 0 6
-3 8 -7 6 -5 -3 -13 1 -20 8 -10 11 -10 15 0 18 7 3 5 6 -5 6 -19 1 -68 46
-68 62 0 6 -3 8 -7 6 -5 -3 -14 1 -21 9 -10 11 -10 14 0 15 7 0 1 5 -14 11
-16 5 -28 14 -28 19 0 5 -7 9 -16 9 -8 0 -12 5 -9 10 3 6 0 10 -9 10 -8 0 -16
5 -18 12 -2 6 -31 13 -64 16 -46 3 -64 0 -76 -12z"/>
<path d="M3530 11360 c0 -5 5 -10 10 -10 6 0 10 5 10 10 0 6 -4 10 -10 10 -5
0 -10 -4 -10 -10z"/>
<path d="M6530 11360 c0 -5 5 -10 10 -10 6 0 10 5 10 10 0 6 -4 10 -10 10 -5
0 -10 -4 -10 -10z"/>
<path d="M3556 11341 c-4 -5 -2 -12 3 -15 5 -4 12 -2 15 3 4 5 2 12 -3 15 -5
4 -12 2 -15 -3z"/>
<path d="M6506 11341 c-4 -5 -2 -12 3 -15 5 -4 12 -2 15 3 4 5 2 12 -3 15 -5
4 -12 2 -15 -3z"/>
<path d="M3580 11310 c0 -5 5 -10 10 -10 6 0 10 -7 10 -15 0 -8 7 -15 15 -15
8 0 15 7 15 15 0 8 -7 15 -15 15 -8 0 -15 5 -15 10 0 6 -4 10 -10 10 -5 0 -10
-4 -10 -10z"/>
<path d="M6480 11310 c0 -5 -7 -10 -15 -10 -8 0 -15 -7 -15 -15 0 -8 7 -15 15
-15 8 0 15 7 15 15 0 8 5 15 10 15 6 0 10 5 10 10 0 6 -4 10 -10 10 -5 0 -10
-4 -10 -10z"/>
<path d="M11458 9682 c-3 -9 -6 -48 -7 -87 -1 -38 -7 -71 -12 -73 -5 -2 -9
-30 -9 -62 0 -33 -5 -60 -11 -62 -6 -2 -13 -25 -16 -51 -3 -26 -10 -47 -14
-47 -5 0 -9 -18 -9 -40 0 -27 -4 -39 -12 -37 -8 1 -14 -10 -16 -25 -2 -16 -8
-28 -13 -28 -5 0 -9 -11 -9 -25 0 -14 -4 -25 -10 -25 -5 0 -12 -11 -16 -25 -3
-14 -10 -25 -15 -25 -5 0 -9 -11 -9 -25 0 -16 -6 -25 -15 -25 -8 0 -15 -9 -15
-20 0 -11 -4 -20 -10 -20 -5 0 -10 -7 -10 -15 0 -8 -7 -15 -15 -15 -8 0 -15
-7 -15 -15 0 -8 -9 -15 -20 -15 -11 0 -23 7 -26 15 -4 8 -17 15 -30 15 -13 0
-24 5 -24 10 0 6 -9 10 -20 10 -11 0 -23 7 -26 15 -4 8 -15 15 -25 15 -10 0
-19 5 -19 10 0 6 -7 10 -15 10 -8 0 -15 7 -15 15 0 10 -10 15 -27 15 -22 0
-25 2 -13 10 12 8 12 10 -5 10 -11 0 -30 12 -42 27 -13 14 -26 23 -31 18 -4
-4 -1 -10 6 -12 6 -3 12 -9 12 -15 0 -6 11 -21 25 -34 14 -13 25 -30 25 -39 0
-8 5 -15 10 -15 6 0 10 -7 10 -15 0 -8 7 -15 15 -15 9 0 15 -9 15 -25 0 -14 4
-25 9 -25 5 0 12 -11 15 -25 4 -14 11 -25 16 -25 6 0 10 -12 10 -26 0 -14 4
-23 10 -19 6 4 10 -5 10 -20 0 -27 -20 -55 -39 -55 -6 0 -11 -4 -11 -9 0 -5
-10 -13 -22 -17 -13 -4 -25 -10 -28 -13 -13 -16 -62 -41 -82 -42 -22 0 -22 -1
-3 -9 18 -8 18 -9 -6 -9 -14 -1 -34 -8 -45 -16 -10 -8 -29 -15 -41 -15 -13 0
-23 -4 -23 -10 0 -5 -10 -10 -22 -10 -13 -1 -34 -7 -48 -15 -14 -8 -43 -15
-65 -15 -30 0 -36 -3 -25 -10 11 -7 -2 -10 -43 -10 -32 0 -74 -7 -95 -16 -20
-8 -38 -15 -39 -15 -26 6 -133 -2 -133 -9 0 -6 26 -10 58 -10 33 0 81 -7 108
-15 27 -8 74 -15 104 -15 39 0 51 -3 40 -10 -11 -7 -5 -10 25 -10 22 0 51 -7
65 -15 14 -8 35 -14 48 -15 12 0 22 -4 22 -10 0 -5 10 -10 23 -10 12 0 31 -7
41 -15 11 -8 31 -15 45 -16 24 0 24 -1 6 -9 -19 -8 -19 -9 3 -9 20 -1 69 -26
82 -42 3 -3 15 -9 28 -13 12 -4 22 -12 22 -17 0 -5 5 -9 11 -9 19 0 39 -28 39
-55 0 -15 -4 -24 -10 -20 -6 4 -10 -5 -10 -19 0 -14 -4 -26 -10 -26 -5 0 -12
-11 -16 -25 -3 -14 -10 -25 -15 -25 -5 0 -9 -11 -9 -25 0 -16 -6 -25 -15 -25
-8 0 -15 -7 -15 -15 0 -8 -4 -15 -10 -15 -5 0 -10 -7 -10 -15 0 -9 -11 -26
-25 -39 -14 -13 -25 -28 -25 -34 0 -6 -6 -12 -12 -15 -7 -2 -10 -8 -6 -12 5
-5 18 4 31 18 12 15 31 27 42 27 17 0 17 2 5 10 -12 8 -9 10 13 10 17 0 27 5
27 15 0 8 7 15 15 15 8 0 15 5 15 10 0 6 9 10 19 10 10 0 21 7 25 15 3 8 14
15 25 15 11 0 21 5 23 10 2 6 13 12 26 13 12 0 22 7 22 14 0 7 9 13 20 13 21
0 60 -33 60 -50 0 -5 5 -10 10 -10 6 0 10 -9 10 -20 0 -11 7 -20 15 -20 9 0
15 -9 15 -25 0 -14 4 -25 9 -25 5 0 12 -11 15 -25 4 -14 11 -25 16 -25 6 0 10
-11 10 -25 0 -14 4 -25 9 -25 5 0 11 -12 13 -27 2 -16 8 -27 16 -25 8 1 12
-11 12 -38 0 -22 4 -40 9 -40 4 0 11 -21 14 -47 3 -26 10 -49 16 -51 6 -2 11
-29 11 -62 0 -32 4 -60 9 -62 5 -1 11 -34 12 -73 3 -82 8 -107 20 -99 5 3 9
43 9 90 0 46 4 84 9 84 5 0 11 28 13 62 3 35 10 64 16 66 7 2 12 23 12 48 0
24 5 44 10 44 6 0 10 11 10 24 0 33 10 57 21 50 5 -3 9 9 9 25 0 17 5 31 10
31 6 0 10 11 10 25 0 17 6 25 18 25 14 0 15 2 2 10 -10 6 -11 10 -2 10 6 0 12
7 12 15 0 8 5 15 10 15 6 0 10 9 10 20 0 11 7 23 15 26 8 4 15 14 15 24 0 10
7 21 16 24 8 3 12 10 9 16 -3 5 1 10 9 10 9 0 16 7 16 15 0 9 9 15 25 15 14 0
25 -4 25 -10 0 -5 11 -12 25 -16 14 -3 25 -10 25 -15 0 -5 11 -9 25 -9 16 0
25 -6 25 -15 0 -9 9 -15 23 -15 12 0 31 -11 41 -25 10 -14 28 -25 40 -25 17 0
18 -2 6 -10 -12 -8 -9 -10 13 -10 17 0 27 -5 27 -15 0 -8 5 -15 10 -15 6 0 10
7 10 15 0 8 -4 15 -10 15 -5 0 -10 5 -10 11 0 6 -6 17 -12 24 -30 33 -38 45
-38 55 0 5 -4 10 -10 10 -5 0 -12 11 -16 25 -3 14 -10 25 -15 25 -5 0 -9 11
-9 25 0 15 -5 24 -12 22 -8 -1 -14 10 -16 26 -2 15 -8 25 -13 22 -5 -4 -9 8
-9 24 0 21 5 31 16 31 8 0 12 5 9 10 -3 6 1 10 9 10 9 0 16 5 16 11 0 5 5 7
10 4 6 -3 10 -1 10 4 0 6 7 11 15 11 8 0 15 4 15 9 0 5 11 12 25 15 14 4 25
11 25 16 0 6 12 10 28 10 21 0 24 2 12 10 -12 8 -9 10 12 10 15 0 33 7 42 15
8 8 24 15 34 15 11 0 22 4 24 9 2 5 17 11 33 13 17 1 33 7 36 12 4 5 31 11 60
14 40 4 49 7 34 13 -13 5 -2 8 36 8 31 1 75 8 98 16 23 8 43 14 46 15 3 0 32
0 65 0 33 0 60 4 60 10 0 6 -28 10 -64 10 -35 0 -83 7 -106 15 -23 8 -68 15
-99 16 -38 0 -49 3 -36 8 15 6 6 9 -34 13 -29 3 -56 9 -60 14 -3 5 -19 11 -36
12 -16 2 -31 8 -33 13 -2 5 -13 9 -24 9 -10 0 -26 7 -34 15 -9 8 -27 15 -42
15 -21 0 -24 2 -12 10 12 8 9 10 -12 10 -16 0 -28 4 -28 10 0 5 -11 12 -25 16
-14 3 -25 10 -25 15 0 5 -7 9 -15 9 -8 0 -15 5 -15 11 0 5 -4 7 -10 4 -5 -3
-10 -1 -10 4 0 6 -7 11 -16 11 -8 0 -12 5 -9 10 3 6 -1 10 -9 10 -11 0 -16 10
-16 31 0 17 4 28 10 24 6 -4 10 5 10 19 0 16 6 26 15 26 9 0 15 9 15 25 0 14
4 25 9 25 5 0 12 11 15 25 4 14 11 25 16 25 6 0 10 5 10 11 0 6 6 17 13 24 29
33 37 45 37 55 0 5 5 10 10 10 6 0 10 7 10 15 0 8 -4 15 -10 15 -5 0 -10 -7
-10 -15 0 -10 -10 -15 -27 -15 -22 0 -25 -2 -13 -10 12 -8 11 -10 -6 -10 -12
0 -30 -11 -40 -25 -10 -14 -29 -25 -41 -25 -14 0 -23 -6 -23 -15 0 -9 -9 -15
-25 -15 -14 0 -25 -4 -25 -10 0 -5 -11 -10 -25 -10 -16 0 -25 -6 -25 -15 0 -9
-9 -15 -25 -15 -16 0 -25 6 -25 15 0 8 -7 15 -15 15 -8 0 -15 7 -15 15 0 8 -4
15 -10 15 -5 0 -10 9 -10 19 0 10 -7 21 -15 25 -8 3 -15 15 -15 26 0 11 -4 20
-10 20 -5 0 -10 7 -10 15 0 8 -6 15 -12 15 -9 0 -8 4 2 10 13 8 12 10 -2 10
-12 0 -18 8 -18 25 0 14 -4 25 -10 25 -5 0 -10 14 -10 31 0 16 -4 28 -9 25
-11 -7 -21 17 -21 50 0 13 -4 24 -10 24 -5 0 -10 20 -10 44 0 25 -5 46 -12 48
-6 2 -13 31 -16 66 -2 34 -8 62 -13 62 -5 0 -9 38 -9 84 0 78 -12 119 -22 78z"/>
<path d="M1877 9053 c-2 -38 -8 -79 -12 -93 -5 -14 -10 -52 -13 -85 -3 -43 -7
-54 -13 -40 -6 15 -8 9 -8 -22 -1 -24 -1 -45 -1 -48 1 -3 -6 -13 -15 -21 -8
-9 -15 -29 -15 -45 0 -18 -4 -28 -10 -24 -6 4 -10 -5 -10 -20 0 -14 -6 -28
-13 -31 -7 -2 -14 -14 -14 -27 -1 -12 -7 -23 -13 -25 -5 -2 -10 -12 -10 -23 0
-11 -7 -22 -15 -25 -8 -4 -15 -15 -15 -26 0 -10 -4 -16 -10 -13 -9 6 -14 -8
-11 -27 0 -5 -6 -8 -14 -8 -8 0 -15 -7 -15 -15 0 -9 -9 -15 -24 -15 -14 0 -31
7 -40 15 -8 8 -24 15 -35 15 -12 0 -21 5 -21 10 0 6 -7 10 -15 10 -8 0 -15 5
-15 11 0 5 -4 7 -10 4 -5 -3 -10 -1 -10 4 0 6 -5 11 -10 11 -6 0 -23 11 -38
25 -15 14 -32 25 -39 25 -7 0 -13 5 -13 10 0 6 -7 10 -15 10 -21 0 -19 -7 10
-34 14 -13 25 -31 25 -40 0 -9 7 -19 15 -22 8 -4 15 -15 15 -26 0 -10 5 -16
10 -13 6 3 10 -3 10 -13 0 -11 7 -25 15 -32 8 -7 15 -21 15 -32 0 -10 5 -16
10 -13 6 4 10 -10 10 -34 0 -31 -4 -41 -16 -41 -8 0 -13 -4 -10 -9 3 -5 -5
-12 -19 -15 -14 -4 -25 -11 -25 -16 0 -6 -7 -10 -15 -10 -8 0 -15 -4 -15 -10
0 -5 -9 -10 -20 -10 -11 0 -23 -7 -26 -15 -4 -8 -17 -15 -31 -15 -13 0 -21 -4
-18 -10 4 -6 -5 -10 -20 -10 -15 0 -33 -7 -41 -15 -9 -8 -29 -15 -45 -15 -18
0 -28 -4 -24 -10 4 -6 -14 -10 -47 -10 -33 0 -48 -4 -40 -9 19 -11 -18 -20
-88 -22 -40 0 -50 -3 -35 -9 14 -6 0 -9 -47 -11 -38 -1 -72 -3 -78 -4 -5 -1
-18 -4 -27 -5 -33 -4 41 -18 107 -19 46 -1 61 -4 50 -11 -11 -7 1 -10 42 -10
31 0 60 -5 63 -10 4 -6 10 -8 15 -5 5 3 11 1 15 -5 3 -5 22 -10 41 -10 21 0
33 -4 29 -10 -4 -6 7 -10 24 -10 45 0 45 0 54 -16 4 -8 19 -14 33 -14 14 0 22
-4 19 -10 -3 -6 5 -10 18 -10 14 0 27 -7 31 -15 3 -8 15 -15 26 -15 11 0 20
-4 20 -10 0 -5 7 -10 15 -10 8 0 15 -5 15 -11 0 -5 5 -7 10 -4 6 3 10 1 10 -4
0 -6 5 -11 11 -11 21 0 39 -29 39 -65 0 -22 -4 -34 -10 -30 -5 3 -10 -3 -10
-14 0 -11 -7 -26 -15 -35 -8 -8 -15 -22 -15 -31 0 -9 -4 -13 -10 -10 -5 3 -10
-1 -10 -10 0 -9 -12 -27 -26 -40 -15 -14 -22 -25 -15 -25 7 0 1 -11 -13 -24
-30 -27 -32 -36 -11 -36 8 0 15 3 15 8 0 4 16 16 35 26 19 11 35 23 35 28 0 4
7 8 15 8 8 0 15 5 15 11 0 5 5 7 10 4 6 -3 10 -1 10 4 0 6 7 11 15 11 8 0 15
5 15 10 0 6 8 10 18 10 9 0 26 7 36 15 11 8 28 15 38 15 22 0 58 -34 58 -56 0
-8 5 -12 10 -9 9 6 14 -7 8 -21 -2 -3 5 -10 15 -15 9 -6 17 -18 17 -29 0 -10
5 -20 10 -22 6 -2 12 -13 13 -25 0 -13 7 -25 14 -27 7 -3 13 -17 13 -31 0 -15
4 -24 10 -20 6 4 10 -6 10 -24 0 -16 6 -36 13 -43 16 -16 17 -18 18 -70 0 -33
2 -38 9 -23 7 16 9 11 9 -22 1 -23 8 -68 16 -100 8 -31 15 -81 15 -110 0 -76
17 -65 23 15 2 37 8 78 12 92 5 14 10 52 13 85 3 43 7 54 13 40 6 -15 8 -11 9
20 0 22 7 51 15 65 8 14 14 38 15 53 0 16 4 26 10 22 6 -4 10 5 10 20 0 14 6
28 13 31 7 2 14 14 14 27 1 12 7 23 13 25 5 2 10 12 10 23 0 11 7 22 15 25 8
4 15 15 15 26 0 10 5 16 10 13 9 -6 14 8 11 28 0 4 6 7 14 7 8 0 15 7 15 15 0
19 40 20 66 0 10 -8 27 -15 37 -15 9 0 17 -4 17 -10 0 -5 7 -10 15 -10 8 0 15
-5 15 -11 0 -5 5 -7 10 -4 6 3 10 1 10 -4 0 -6 7 -11 15 -11 8 0 15 -3 15 -8
0 -4 16 -16 35 -26 19 -11 35 -23 35 -28 0 -4 7 -8 15 -8 23 0 18 16 -11 39
-15 12 -21 21 -14 21 7 0 1 11 -14 25 -14 13 -26 31 -26 40 0 9 -4 13 -10 10
-5 -3 -10 3 -10 13 0 11 -7 25 -15 32 -8 7 -15 21 -15 31 0 11 -4 19 -10 19
-5 0 -10 14 -10 31 0 30 19 59 39 59 6 0 11 5 11 11 0 5 5 7 10 4 6 -3 10 -1
10 4 0 6 7 11 15 11 8 0 15 5 15 10 0 6 9 10 20 10 11 0 23 7 26 15 4 8 17 15
31 15 13 0 21 4 18 10 -3 6 5 10 19 10 14 0 29 8 35 18 5 9 12 16 15 15 17 -8
66 -2 61 7 -4 6 8 10 29 10 19 0 38 5 41 10 4 6 10 8 15 5 5 -3 11 -1 15 5 3
5 32 10 63 10 41 0 53 3 42 10 -11 7 4 10 50 11 66 1 140 15 108 19 -10 1 -22
4 -28 5 -5 1 -40 3 -77 4 -48 2 -62 5 -48 11 15 6 5 9 -35 9 -70 2 -107 11
-88 22 8 5 -7 9 -40 9 -33 0 -51 4 -47 10 4 6 -7 10 -24 10 -17 0 -31 5 -31
11 0 5 -4 7 -10 4 -5 -3 -10 -1 -10 4 0 6 -14 11 -31 11 -17 0 -28 4 -24 10 5
9 -8 12 -32 9 -3 0 -10 6 -15 15 -5 9 -18 16 -28 16 -11 0 -20 5 -20 10 0 6
-7 10 -15 10 -8 0 -15 5 -15 11 0 5 -4 7 -10 4 -5 -3 -10 -1 -10 4 0 6 -7 11
-16 11 -8 0 -12 5 -9 10 3 6 -1 10 -9 10 -12 0 -16 11 -16 42 0 23 3 39 6 35
7 -7 44 60 44 81 0 7 5 10 10 7 6 -3 10 1 10 10 0 9 11 26 24 38 13 12 26 32
30 45 4 12 12 22 17 22 5 0 9 5 9 10 0 6 -7 10 -15 10 -8 0 -15 -3 -15 -8 0
-4 -16 -16 -35 -26 -19 -11 -35 -23 -35 -28 0 -4 -7 -8 -15 -8 -8 0 -15 -5
-15 -11 0 -5 -4 -7 -10 -4 -5 3 -10 1 -10 -4 0 -6 -7 -11 -15 -11 -8 0 -15 -4
-15 -10 0 -5 -9 -10 -21 -10 -11 0 -27 -7 -35 -15 -9 -8 -26 -15 -40 -15 -15
0 -24 6 -24 15 0 8 -7 15 -15 15 -8 0 -14 3 -14 8 3 19 -2 33 -11 27 -5 -3
-10 3 -10 13 0 11 -7 22 -15 26 -8 3 -15 14 -15 25 0 11 -5 21 -10 23 -6 2
-12 13 -13 25 0 13 -7 25 -14 27 -7 3 -13 17 -13 31 0 15 -4 24 -10 20 -6 -4
-10 6 -10 22 -1 15 -7 39 -15 53 -8 14 -15 43 -15 65 0 30 -3 36 -10 25 -7
-11 -10 -2 -10 31 0 25 -7 68 -15 95 -8 27 -15 73 -15 102 0 75 -17 64 -23
-15z"/>
<path d="M12055 9110 c3 -5 10 -10 16 -10 5 0 9 5 9 10 0 6 -7 10 -16 10 -8 0
-12 -4 -9 -10z"/>
<path d="M1330 8579 c0 -5 5 -7 10 -4 6 3 10 8 10 11 0 2 -4 4 -10 4 -5 0 -10
-5 -10 -11z"/>
<path d="M2435 8580 c3 -5 8 -10 11 -10 2 0 4 5 4 10 0 6 -5 10 -11 10 -5 0
-7 -4 -4 -10z"/>
<path d="M3600 8436 c0 -8 -6 -16 -12 -19 -8 -2 -9 -8 -4 -13 5 -5 11 -4 13 4
3 6 11 12 19 12 8 0 14 7 14 15 0 8 -7 15 -15 15 -8 0 -15 -6 -15 -14z"/>
<path d="M6450 8435 c0 -8 6 -15 14 -15 8 0 16 -6 19 -12 2 -8 8 -9 13 -4 5 5
4 11 -3 13 -7 3 -13 11 -13 19 0 8 -7 14 -15 14 -8 0 -15 -7 -15 -15z"/>
<path d="M3556 8391 c-4 -5 -2 -12 3 -15 5 -4 12 -2 15 3 4 5 2 12 -3 15 -5 4
-12 2 -15 -3z"/>
<path d="M6506 8391 c-4 -5 -2 -12 3 -15 5 -4 12 -2 15 3 4 5 2 12 -3 15 -5 4
-12 2 -15 -3z"/>
<path d="M3530 8360 c0 -5 5 -10 10 -10 6 0 10 5 10 10 0 6 -4 10 -10 10 -5 0
-10 -4 -10 -10z"/>
<path d="M6530 8360 c0 -5 5 -10 10 -10 6 0 10 5 10 10 0 6 -4 10 -10 10 -5 0
-10 -4 -10 -10z"/>
<path d="M12055 7910 c-3 -5 1 -10 9 -10 9 0 16 5 16 10 0 6 -4 10 -9 10 -6 0
-13 -4 -16 -10z"/>
<path d="M1330 7486 c0 -9 5 -16 10 -16 6 0 10 4 10 9 0 6 -4 13 -10 16 -5 3
-10 -1 -10 -9z"/>
<path d="M2437 7493 c-4 -3 -7 -11 -7 -17 0 -6 5 -5 12 2 6 6 9 14 7 17 -3 3
-9 2 -12 -2z"/>
</g>
</svg>
