<?xml version="1.0" ?><!DOCTYPE svg  PUBLIC '-//W3C//DTD SVG 1.1//EN'  'http://www.w3.org/Graphics/SVG/1.1/DTD/svg11.dtd'><svg width="512px" height="512px" viewBox="0 0 512 512" enable-background="new 0 0 512 512" id="Слой_1" version="1.1" xml:space="preserve" xmlns="http://www.w3.org/2000/svg" xmlns:xlink="http://www.w3.org/1999/xlink"><g><g><g><g><path fill="#2fd4ae" d="M98.717,418.994c-1.448,0-2.841-0.575-3.867-1.601l-0.066-0.069       c-44.225-44.327-66.626-98.583-66.594-161.263c0.002-10.704,0.66-21.292,1.958-31.47c6.253-49.449,28.048-93.14,64.77-129.854       c1.026-1.025,2.418-1.603,3.869-1.603c0,0,0,0,0.003,0c1.451,0.002,2.846,0.579,3.872,1.605l36.39,36.455       c2.135,2.141,2.133,5.601-0.003,7.738c-28.191,28.178-44.275,61.91-47.808,100.26c-0.492,5.459-0.738,11.137-0.732,16.862       c-0.008,45.484,16.279,84.87,48.409,117.075c2.133,2.138,2.199,5.664,0.067,7.802l-36.393,36.455       c-1.026,1.026-2.416,1.604-3.87,1.606C98.722,418.994,98.72,418.994,98.717,418.994z M98.823,106.39       c-32.654,34.134-52.095,74.335-57.815,119.581c-1.242,9.729-1.871,19.85-1.873,30.094       c-0.029,57.87,20.028,108.195,59.625,149.669l28.673-28.724c-31.8-33.657-47.878-74.3-47.87-120.945       c-0.006-6.05,0.254-12.062,0.774-17.864c3.613-39.208,19.47-73.857,47.159-103.088L98.823,106.39z M413.602,418.927       c-1.451,0-2.846-0.579-3.872-1.608l-36.396-36.455c-2.133-2.138-2.133-5.601,0.005-7.735       c12.838-12.841,23.254-26.908,30.955-41.808c11.646-22.529,17.538-47.848,17.517-75.251       c0.04-21.995-3.675-42.627-11.044-61.413c-8.055-20.245-20.624-39.002-37.357-55.723c-2.138-2.133-2.141-5.595-0.011-7.732       l36.256-36.389c1.026-1.029,2.421-1.608,3.875-1.611c0,0,0.003,0,0.005,0c1.451,0,2.844,0.577,3.87,1.604       c27.497,27.504,46.715,59.021,57.123,93.679c6.353,21.101,9.586,43.816,9.604,67.506c0.008,34.727-6.862,67.032-20.421,96.098       c-10.938,23.502-26.492,45.449-46.237,65.231C416.447,418.348,415.055,418.927,413.602,418.927z M384.892,376.946       l28.667,28.718c17.024-17.835,30.546-37.391,40.23-58.199c12.88-27.606,19.405-58.357,19.397-91.4       c-0.019-22.69-3.095-44.346-9.142-64.431c-9.393-31.28-26.386-59.906-50.548-85.169l-28.539,28.643       c15.902,16.785,27.999,35.439,35.986,55.527c7.886,20.096,11.856,42.082,11.812,65.37c0.024,29.229-6.282,56.241-18.74,80.345       C406.576,350.74,396.791,364.378,384.892,376.946z M160.832,356.818c-0.011,0-0.021,0-0.032,0       c-1.459-0.008-2.854-0.601-3.877-1.643l-0.067-0.069c-27.12-27.185-40.893-60.519-40.897-99.042       c-0.027-1.812-0.027-3.49,0-5.149c1.154-36.479,14.927-68.125,40.936-94.139c2.135-2.138,5.598-2.138,7.735-0.006       l36.465,36.392c1.026,1.026,1.604,2.416,1.604,3.869c0.003,1.451-0.571,2.843-1.598,3.869       c-15.296,15.31-22.719,33.281-22.688,54.95c-0.019,2.624,0.067,4.985,0.257,7.289c0.006,0.08,0.011,0.16,0.017,0.24       c1.539,18.206,9.08,34.211,22.414,47.575c1.026,1.026,1.67,2.49,1.667,3.941c-0.002,1.451-0.513,2.912-1.541,3.936       l-36.532,36.392C163.667,356.244,162.277,356.818,160.832,356.818z M160.84,168.452       c-21.521,23.214-32.938,51.018-33.942,82.723c-0.021,1.459-0.021,3.024,0.006,4.598c0,0.03,0,0.265,0,0.292       c0.005,33.714,11.442,63.115,34.012,87.478l28.801-28.69c-12.957-14.418-20.37-31.497-21.955-50.745       c-0.005-0.085-0.011-0.168-0.016-0.251c-0.206-2.573-0.3-5.21-0.278-7.837c-0.031-22.674,7.408-42.411,22.126-58.872       L160.84,168.452z M351.556,356.749h-0.069c-1.448,0-2.838-0.574-3.864-1.601l-36.465-36.386       c-2.116-2.116-2.144-5.544-0.054-7.689c2.101-2.159,4.086-4.398,5.908-6.658c0.118-0.192,0.249-0.377,0.388-0.551       c10.967-13.607,16.541-29.717,16.575-47.88c-0.026-21.744-7.469-39.676-22.748-54.94c-1.029-1.025-1.606-2.42-1.606-3.871       s0.575-2.846,1.604-3.872l36.532-36.524c1.159-1.165,2.773-1.742,4.422-1.576c1.617,0.165,3.07,1.036,3.979,2.38       c8.674,8.794,16.044,18.316,21.915,28.325c0.168,0.206,0.317,0.428,0.454,0.66c11.883,20.544,17.909,43.859,17.906,69.296       c-0.014,26.54-6.493,50.664-19.256,71.836c-0.145,0.241-0.308,0.471-0.483,0.679c-5.797,9.422-12.947,18.421-21.264,26.762       C354.404,356.17,353.009,356.749,351.556,356.749z M322.621,314.739l28.822,28.76c6.296-6.797,11.763-13.995,16.301-21.466       c0.133-0.219,0.28-0.428,0.44-0.625c11.469-19.291,17.292-41.297,17.303-65.414c0.003-23.357-5.403-44.609-16.071-63.313       c-0.157-0.198-0.304-0.412-0.433-0.637c-4.762-8.224-10.638-16.119-17.503-23.521l-28.753,28.753       c14.702,16.413,22.163,36.092,22.192,58.573c-0.037,20.656-6.298,38.899-18.606,54.392c-0.112,0.185-0.234,0.36-0.368,0.526       C324.887,312.104,323.775,313.43,322.621,314.739z M256.329,304.15L256.329,304.15c0,0-0.072,0-0.075,0       c-13.265,0-24.715-4.751-34.098-14.118c-9.411-9.421-14.184-20.916-14.189-34.171c0.006-13.239,4.783-24.716,14.192-34.109       c9.388-9.4,20.864-14.178,34.101-14.183c13.262,0.005,24.758,4.777,34.177,14.185c9.391,9.402,14.142,20.876,14.123,34.112       c0.019,13.242-4.732,24.736-14.115,34.157C281.028,299.402,269.557,304.15,256.329,304.15z M256.26,218.514       c-10.363,0.005-18.989,3.596-26.359,10.979c-7.391,7.377-10.982,16.002-10.988,26.369c0.006,10.388,3.598,19.037,10.986,26.43       c7.351,7.343,15.955,10.915,26.297,10.915h0.134c10.368,0,18.996-3.572,26.374-10.923c7.352-7.377,10.924-16.023,10.911-26.417       c0.013-10.383-3.557-19.005-10.919-26.371C275.304,222.109,266.654,218.519,256.26,218.514z"/></g></g></g></g></svg>