<?xml version="1.0" encoding="iso-8859-1"?>
<!-- Generator: Adobe Illustrator 16.0.0, SVG Export Plug-In . SVG Version: 6.00 Build 0)  -->
<!DOCTYPE svg PUBLIC "-//W3C//DTD SVG 1.1//EN" "http://www.w3.org/Graphics/SVG/1.1/DTD/svg11.dtd">
<svg version="1.1" id="Capa_1" xmlns="http://www.w3.org/2000/svg" xmlns:xlink="http://www.w3.org/1999/xlink" x="0px" y="0px"
	 width="673.221px" height="673.222px" viewBox="0 0 673.221 673.222" style="enable-background:new 0 0 673.221 673.222;"
	 xml:space="preserve">
<g>
	<path d="M470.486,136.597c13.158-13.77-13.158-41.279-26.347-27.509L138.69,428.215c0,0-68.452,71.543-5.263,137.547
		c63.188,66.035,131.672-5.508,131.672-5.508l321.269-335.621c0,0,84.272-88.036-5.263-181.581
		c-89.536-93.544-173.809-5.508-173.809-5.508L86.028,373.196c0,0-121.115,126.562-5.264,247.615s236.997-5.508,236.997-5.508
		l321.27-335.652c13.158-13.739-13.158-41.279-26.347-27.509L291.446,587.764c0,0-94.799,99.052-184.335,5.508
		c-89.535-93.544,5.264-192.565,5.264-192.565L433.613,65.054c0,0,57.926-60.527,121.146,5.508
		c63.188,66.035,5.263,126.562,5.263,126.562L238.783,532.745c0,0-42.136,44.033-79.009,5.508s5.263-82.528,5.263-82.528
		L470.486,136.597z"/>
</g>
<g>
</g>
<g>
</g>
<g>
</g>
<g>
</g>
<g>
</g>
<g>
</g>
<g>
</g>
<g>
</g>
<g>
</g>
<g>
</g>
<g>
</g>
<g>
</g>
<g>
</g>
<g>
</g>
<g>
</g>
</svg>
